<svg xmlns="http://www.w3.org/2000/svg" id="NefDesFous" viewBox="0 0 368.7 209.39999" preserveAspectRatio="xMidYMid meet" width="368.7" height="209.4"><style id="style3">.st0{fill:#db5a31}.st1{fill:#62a297}.st2{fill:#fff}.st3{fill:#ecc500}.st4{fill:#ecdfab}.st5{fill:#0d0d0c}.st6{fill:#a4a4a3}.st7{fill:#9a9999}.st8{fill:#b8b8b8}.st9{fill:#9c9b9b}.st10{fill:#444443}.st11{fill:#9a9a9a}.st12{fill:#ababab}.st13{fill:#b9b9b8}.st14{fill:#adadad}.st15{fill:#8a8a8a}.st16{fill:#929292}.st17{fill:#b1b1b1}.st18{fill:#141413}.st19{fill:#8d8d8d}.st20{fill:#9e9e9e}.st21{fill:#969695}.st22{fill:#898988}.st23{fill:#a4a4a4}.st24{fill:#a8a8a8}.st25{fill:#666665}.st26{fill:#b7b7b7}.st27{fill:#8d8c8c}.st28{fill:#616160}.st29{fill:#939393}.st30{fill:#727171}.st31{fill:#6e6d6d}.st32{fill:#494948}.st33{fill:#babab9}.st34{fill:#b4b4b3}.st35{fill:#3a3a39}.st36{fill:#a6a6a6}.st37{fill:#565555}.st38{fill:#aeaead}.st39{fill:#454544}.st40{fill:#555554}.st41{fill:#b4b4b4}.st42{fill:#797878}.st43{fill:#383837}.st44{fill:#a09f9f}.st45{fill:#4a4948}.st46{fill:#878787}.st47{fill:#60605f}.st48{fill:#adadac}.st49{fill:#838383}.st50{fill:#6b6a6a}.st51{fill:#434342}.st52{fill:#828281}.st53{fill:#9a9a99}.st54{fill:#989897}.st55{fill:#3a3938}.st56{fill:#7a7a79}.st57{fill:#3b3a3a}.st58{fill:#828181}.st59{fill:#6f6f6e}.st60{fill:#8b8a8a}.st61{fill:#a0a0a0}.st62{fill:#888787}.st63{fill:#696868}.st64{fill:#767675}.st65{fill:#5e5d5d}.st66{fill:#656464}.st67{fill:#7f7f7f}.st68{fill:#575756}.st69{fill:#626262}.st70{fill:#8b8b8a}.st71{fill:#4e4e4d}.st72{fill:#696968}.st73{fill:#676766}.st74{fill:#7b7b7a}.st75{fill:#717170}.st76{fill:#6f6e6e}.st77{fill:#aeaeae}.st78{fill:#5e5e5d}.st79{fill:#545453}.st80{fill:#676767}.st81{fill:#747473}.st82{fill:#6c6b6b}.st83{fill:#959595}.st84{fill:#555453}.st85{fill:#bebebe}.st86{fill:#818080}.st87{fill:#5f5e5e}.st88{fill:#707070}.st89{fill:#8f8f8e}.st90{fill:#787877}.st91{fill:#acacab}.st92{fill:#969696}.st93{fill:#afafaf}.st94{fill:#414140}.st95{fill:#777776}.st96{fill:#9d9d9d}.st97{fill:#9f9f9f}.st98{fill:#7f7f7e}.st99{fill:#7b7a7a}.st100{fill:#7d7d7d}.st101{fill:#595958}.st102{fill:#979696}.st103{fill:#8a8a89}.st104{fill:#797978}.st105{fill:#50504f}.st106{fill:#949393}.st107{fill:#8e8e8d}.st108{fill:#2c2c2b}.st109{fill:#787878}.st110{fill:#6c6c6b}.st111{fill:#7c7c7c}.st112{fill:#848383}.st113{fill:#373736}.st114{fill:#868685}.st115{fill:#3f3f3e}.st116{fill:#7a7979}.st117{fill:#474746}.st118{fill:#5b5a5a}.st119{fill:#5d5d5c}.st120{fill:#7e7e7d}.st121{fill:#757574}.st122{fill:#8c8b8b}.st123{fill:#90908f}.st124{fill:#2d2d2c}.st125{fill:#737372}.st126{fill:#5a5a59}.st127{fill:#858584}.st128{fill:#929291}.st129{fill:#494848}.st130{fill:#515050}.st131{fill:#3d3c3b}.st132{fill:#4a4a49}.st133{fill:#686767}.st134{fill:#686867}.st135{fill:#535252}.st136{fill:#848484}.st137{fill:#6e6e6d}.st138{fill:#828282}.st139{fill:#1a1919}.st140{fill:#1c1c1c}.st141{fill:#949494}.st142{fill:#9f9f9e}.st143{fill:#8c8c8b}.st144{fill:#a7a6a6}.st145{fill:#a6a5a5}.st146{fill:#a1a1a1}.st147{fill:#b0b0b0}.st148{fill:#a2a2a1}.st149{fill:#a8a8a7}.st150{fill:#a5a5a4}.st151{fill:#a5a5a5}.st152{fill:#959594}.st153{fill:#727271}.st154{fill:#7c7c7b}.st155{fill:#838382}.st156{fill:#7d7d7c}.st157{fill:#595858}.st158{fill:#a0a09f}.st159{fill:#262626}.st160{fill:#717070}.st161{fill:#626261}.st162{fill:#aaa}.st163{fill:#acacac}.st164{fill:#898888}.st165{fill:#a6a6a5}.st166{fill:#9d9d9c}.st167{fill:#aaa9a9}.st168{fill:#bcbbbb}.st169{fill:#868686}.st170{fill:#878786}.st171{fill:#6d6c6c}.st172{fill:#bfbfbe}.st173{fill:#b3b3b3}.st174{fill:#919191}.st175{fill:#b1b1b0}.st176{fill:#c2c2c1}.st177{fill:#b5b5b5}.st178{fill:#5c5c5b}.st179{fill:#757474}.st180{fill:#4b4b4a}.st181{fill:#353434}.st182{fill:#9c9c9b}.st183{fill:#939392}.st184{fill:#656565}.st185{fill:#7e7e7e}.st186{fill:#8c8c8c}.st187{fill:#525251}.st188{fill:#484747}.st189{fill:#a1a0a0}.st190{fill:#252524}.st191{fill:#5f5f5e}.st192{fill:gray}.st193{fill:#424140}.st194{fill:#636362}.st195{fill:#a7a7a6}.st196{fill:#9c9c9c}.st197{fill:#1b1b1b}.st198{fill:#1f1f1e}.st199{fill:#202020}.st200{fill:#6d6d6c}.st201{fill:#545353}.st202{fill:#a3a3a2}.st203{fill:#41403f}.st204{fill:#afafae}.st205{fill:#abaaaa}.st206{fill:#8e8e8e}.st207{fill:#999898}.st208{fill:#535352}.st209{fill:#a3a3a3}.st210{fill:#989797}.st211{fill:#9f9e9e}.st212{fill:#c9c9c9}.st213{fill:#858585}.st214{fill:#333231}.st215{fill:#3c3b3a}.st216{fill:#7b7b7b}.st217{fill:#939292}.st218{fill:#5d5d5d}.st219{fill:#cacac9}.st220{fill:#eaeaea}.st221{fill:#a7a7a7}.st222{fill:#504f4f}.st223{fill:#b2b2b2}.st224{fill:#0f0f0f}.st225{fill:#c0c0bf}.st226{fill:#353534}.st227{fill:#bbb}.st228{fill:#363635}.st229{fill:#4a4949}.st230{fill:#403f3e}.st231{fill:#101010}.st232{fill:#626161}.st233{fill:#7f7e7e}.st234{fill:#646363}.st235{fill:#313130}.st236{fill:#0e0e0e}.st237{fill:#6a6969}.st238{fill:#6b6b6a}.st239{fill:#4c4c4b}.st240{fill:#848483}.st241{fill:#474646}.st242{fill:#4b4a4a}.st243{fill:#999}.st244{fill:#9b9b9a}.st245{fill:#8f8f8f}.st246{fill:#636262}.st247{fill:#a9a9a9}.st248{fill:#999998}.st249{fill:#bcbcbc}.st250{fill:#919190}.st251{fill:#b3b3b2}.st252{fill:#b6b6b6}.st253{fill:#969595}.st254{fill:#9d9c9c}.st255{fill:#a2a2a2}.st256{fill:#504f4e}.st257{fill:#777}.st258{fill:#5b5b5a}.st259{fill:#40403f}.st260{fill:#464645}.st261{fill:#8b8b8b}.st262{fill:#6b6b6b}.st263{fill:#818180}.st264{fill:#d5d5d5}.st265{fill:#cdcdcc}.st266{fill:#c2c2c2}.st267{fill:#e4e4e4}.st268{fill:#a9a9a8}.st269{fill:#b8b8b7}.st270{fill:#5d5c5c}.st271{fill:#898989}.st272{fill:#787777}.st273{fill:#696969}.st274{fill:#585757}.st275{fill:#807f7f}.st276{fill:#424241}.st277{fill:#bcbcbb}.st278{fill:#878686}.st279{fill:#9b9b9b}.st280{fill:#393938}.st281{fill:#ababaa}.st282{fill:silver}.st283{fill:#8f8e8e}.st284{fill:#a8a7a7}.st285{fill:#6f6f6f}.st286{fill:#b7b7b6}.st287{fill:#676666}.st288{fill:#d2d2d2}.st289{fill:#afaeae}.st290{fill:#3c3c3b}.st291{fill:#4d4d4c}.st292{fill:#989898}.st293{fill:#908f8f}.st294{fill:#adacac}.st295{fill:#aaaaa9}.st296{fill:#a4a3a3}.st297{fill:#acabab}.st298{fill:#bdbdbd}.st299{fill:#dbdbdb}.st300{fill:#dfdfde}.st301{fill:#979796}.st302{fill:#bdbcbc}.st303{fill:#c8c8c7}.st304{fill:#b5b4b4}.st305{fill:#b5b5b4}.st306{fill:#737272}.st307{fill:#f4f4f4}.st308{fill:#8d8d8c}.st309{fill:#9e9e9d}.st310{fill:#818181}.st311{fill:#6a6a69}.st312{fill:#979797}.st313{fill:#a1a1a0}.st314{fill:#888}.st315{fill:#888887}.st316{fill:#706f6f}.st317{fill:#7c7b7b}.st318{fill:#80807f}.st319{fill:#292929}.st320{fill:#525150}.st321{fill:#2b2b2a}.st322{fill:#31302f}.st323{fill:#0c0c0b}.st324{fill:#484847}.st325{fill:#6c6c6c}.st326{fill:#2a2a29}.st327{fill:#767676}.st328{fill:#545352}.st329{fill:#c6c5c5}.st330{fill:#f2f2f2}.st331{fill:#d9d9d9}.st332{fill:#666}.st333{fill:#b3b2b2}.st334{fill:#3e3e3d}.st335{fill:#5c5b5b}.st336{fill:#949493}.st337{fill:#959494}.st338{fill:#cecece}.st339{fill:#c5c5c4}.st340{fill:#c4c4c3}.st341{fill:#b7b6b6}.st342{fill:#d0d0d0}.st343{fill:#7a7a7a}.st344{fill:#262625}.st345{fill:#bbbaba}.st346{fill:#cdcdcd}.st347{fill:#c6c6c6}.st348{fill:#c7c7c7}.st349{fill:#bbbbba}.st350{fill:#d8d8d8}.st351{fill:#e7e7e6}.st352{fill:#b6b5b5}.st353{fill:#c9c9c8}.st354{fill:#a2a1a1}.st355{fill:#777676}.st356{fill:#bababa}.st357{fill:#b4b3b3}.st358{fill:#9e9d9d}.st359{fill:#aeadad}.st360{fill:#b9b9b9}.st361{fill:#b9b8b8}.st362{fill:#cfcfce}.st363{fill:#d7d7d7}.st364{fill:#bebebd}.st365{fill:#a3a2a2}.st366{fill:#757575}.st367{fill:#d6d6d6}.st368{fill:#cbcaca}.st369{fill:#d2d1d1}.st370{fill:#c5c5c5}.st371{fill:#ccc}.st372{fill:#424141}.st373{fill:#656564}.st374{fill:#4f4f4e}.st375{fill:#6a6a6a}.st376{fill:#7d7c7c}.st377{fill:#858484}.st378{fill:#666565}.st379{fill:#747373}.st380{fill:#515150}.st381{fill:#616161}.st382{fill:#302f2f}.st383{fill:#222221}.st384{fill:#181818}.st385{fill:#3b3b3a}.st386{fill:#454444}.st387{fill:#4d4c4c}.st388{fill:#161616}.st389{fill:#282828}.st390{fill:#242424}.st391{fill:#363535}.st392{fill:#605f5f}.st393{fill:#121212}.st394{fill:#403f3f}.st395{fill:#b0afaf}.st396{fill:#8e8d8d}.st397{fill:#e7e7e7}.st398{fill:#dedede}.st399{fill:#d6d6d5}.st400{fill:#c3c3c3}.st401{fill:#dfdfdf}.st402{fill:#bfbebe}.st403{fill:#f9f9f9}.st404{fill:#bdbdbc}.st405{fill:#c3c3c2}.st406{fill:#d3d3d3}.st407{fill:#e8e7e7}.st408{fill:#cfcece}.st409{fill:#b1b0b0}.st410{fill:#868585}.st411{fill:#cccbcb}.st412{fill:#dadada}.st413{fill:#cecdcd}.st414{fill:#565655}.st415{fill:#434242}.st416{fill:#1d1c1c}.st417{fill:#2e2d2d}.st418{fill:#70706f}.st419{fill:#4d4c4b}.st420{fill:#919090}.st421{fill:#a9a8a8}.st422{fill:#909090}.st423{fill:#bfbfbf}.st424{fill:#2a2a2a}.st425{fill:#646463}.st426{fill:#393838}.st427{fill:#212121}.st428{fill:#323231}.st429{fill:#2c2c2c}.st430{fill:#272726}.st431{fill:#7e7d7d}.st432{fill:#232322}.st433{fill:#c4c4c4}.st434{fill:#c6c6c5}.st435{fill:#e4e3e3}.st436{fill:#cccccb}.st437{fill:#cbcbca}.st438{fill:#e9e9e9}.st439{fill:#c1c1c1}.st440{fill:#f7f7f7}.st441{fill:#f5f5f5}.st442{fill:#e6e6e6}.st443{fill:#e8e8e8}.st444{fill:#585857}.st445{fill:#4f4e4e}.st446{fill:#282827}.st447{fill:#f3f3f3}.st448{fill:#f8f8f8}.st449{fill:#eee}.st450{fill:#ececec}.st451{fill:#fafafa}.st452{fill:#f1f1f1}.st453{fill:#f3f2f2}.st454{fill:#ddd}.st455{fill:#cfcfcf}.st456{fill:#e6e6e5}.st457{fill:#e1e1e1}.st458{fill:#c3c2c2}.st459{fill:#b0b0af}.st460{fill:#f7f7f6}.st461{fill:#e2e1e1}.st462{fill:#6e6e6e}.st463{fill:#575656}.st464{fill:#b8b7b7}.st465{fill:#cbcbcb}.st466{fill:#d0d0cf}.st467{fill:#dcdcdc}.st468{fill:#e2e2e2}.st469{fill:#dcdcdb}.st470{fill:#3d3d3c}.st471{fill:#767575}.st472{fill:#20201f}.st473{fill:#d3d2d2}.st474{fill:#c9c8c8}.st475{fill:#30302f}.st476{fill:#343433}.st477{fill:#383737}.st478{fill:#252525}.st479{fill:#2e2e2d}.st480{fill:#131313}.st481{fill:#1d1d1c}.st482{fill:#d4d3d3}.st483{fill:#e5e5e5}.st484{fill:#fefefe}.st485{fill:#ebebeb}.st486{fill:#c8c8c8}.st487{fill:#b6b6b5}.st488{fill:#4c4b4b}.st489{fill:#747474}.st490{fill:#fbfbfb}.st491{fill:#e3e3e2}.st492{fill:#dad9d9}.st493{fill:#e3e3e3}.st494{fill:#d7d7d6}.st495{fill:#d5d5d4}.st496{fill:#f6f6f6}.st497{fill:#dadad9}.st498{fill:#d3d3d2}.st499{fill:#cececd}.st500{fill:#cacaca}.st501{fill:#b2b2b1}.st502{fill:#d6d5d5}.st503{fill:#727272}.st504{fill:#cac9c9}.st505{fill:#f0f0f0}.st506{fill:#d1d0d0}.st507{fill:#fcfcfc}.st508{fill:#efefef}.st509{fill:#d4d4d4}.st510{fill:#ededed}.st511{fill:#dedddd}.st512{fill:#d1d1d0}.st513{fill:#d1d1d1}.st514{fill:#d2d2d1}.st515{fill:#dddddc}.st516{fill:#e0e0e0}.st517{fill:#fdfdfd}.st518{fill:#c1c1c0}.st519{fill:#5a5959}.st520{fill:#bebdbd}.st521{fill:#ecebeb}.st522{fill:#929191}.st523{fill:#d9d9d8}.st524{fill:#e1e0e0}.st525{fill:#464545}.st526{fill:#737373}.st527{fill:#c4c3c3}.st528{fill:#1e1e1e}.st529{fill:#f1f1f0}.st530{fill:#4b4a49}.st531{fill:#464544}.st532{fill:#dededd}.st533{fill:#555454}.st534{fill:#838282}.st535{fill:#c1c0c0}.st536{fill:#e9e9e8}.st537{fill:#e8e8e7}.st538{fill:#2f2f2e}.st539{fill:#525151}.st540{fill:#444343}.st541{fill:#fdfdfc}.st542{fill:#e5e5e4}.st543{fill:#616060}.st544{fill:#4e4d4d}.st545{fill:#bab9b9}.st546{fill:#ebebea}.st547{fill:#e7e6e6}.st548{fill:#4e4d4c}.st549{fill:#444342}.st550{fill:#535251}.st551{fill:#9b9a9a}.st552{fill:#717171}.st553{fill:#d7d6d6}.st554{fill:#c7c7c6}.st555{fill:#434241}</style><g id="g5" transform="translate(-242.5 -55.8)"><path class="st0" id="polygon7" d="M292.8 174.3l266.9-42 51.5 80.9-329.7 23.5z" fill="#db5a31"/><path class="st1" id="polygon9" d="M242.5 140.7l230.7-84.9 13 89.4L267 195.4z" fill="#62a297"/><g id="g11"><path class="st2" d="M270.8 175.3c-1.5-7.3-3.2-21.4-3.3-22.7-.1-1.5 1.1-2.4 2.1-2.6 1.5-.3 2.6 0 2.9 1.5v.2c1.1 7.2 1.9 12.1 2.6 15.3 1.2 6 2 6.5 3.8 6.2l10.5-3.3c.8-.4 1.2-.6 1.9-.7 1.3-.3 1.7.7 2 1.8.3 1.5-.4 2.1-1.4 2.5-10.9 4.4-6.9 1.8-18 6.6-1.1.2-1.5.2-2-.6-.3-.7-.7-2.2-1.1-4.2z" id="path13" fill="#fff"/><path class="st2" d="M303.9 164.4c-3.5 1.4-1.2 5.3-4.1 5.9-1.4.3-3.7.5-4.1-1.4-.4-1.8 2.2-9.7 3.7-14.7.8-2.7.7-5.4 2.6-5.8.1 0 .5 0 .5-.1l28.2 10 .2.1c.9.3 1.5.5 1.7 1.5l.1.3c0 .2.1.4 0 .6l-2.3 3.7c-.1.4-.7.5-1 .6-.5.1-.6.1-1.2-.1-3.8-.9-7.2-3.4-11.1-3.4-5 1-8.6 1.8-13.2 2.8zm3.3-4.9h.2c1.3-.3 2.7-.6 2.4-1.9-.3-1.3-3.9-3.5-5.3-3.2-1.4.3-1.7 2.6-1.4 3.8.6 2 2.6 1.6 4.1 1.3z" id="path15" fill="#fff"/><path class="st2" d="M342.5 122.6c.4-.2.9-.2 1.4-.1 10.4 4.2 24.4 12.2 32.9 7.7 1.3-.7 1.2-2.5.6-4.5-.9-2.9-2.3-5.4-3.2-8.5-1.5-4.9 1-6.5 3.5-7.8.9-.5 2.4-1.3 3 .8 2.2 7.3 5.2 14.5 7.3 21.4 3.4 11.3 7.8 15.1 6.1 16.8-2.8 2.8-16.6-5.4-25.2-4.9 0 0-3.6.3-8.2 2.7-1.5.8-2.2 2.3-1.4 5 .5 1.7 1.5 3 2 4.7 1.1 3.8-2.7 6.3-4.2 7.2-1.8 1-2.5-.8-3.3-2.7l-12.2-30.5c0-.1-.4-1-.5-1.3-.8-2.6 0-5.3 1.4-6z" id="path17" fill="#fff"/><path class="st2" d="M396.9 127.1l-8-18.8s-.2-.5-.2-.7c-.2-1 0-1.9 1.2-2.4l21.8-9.2h.3c2.3-.5 3.1.9 3.5 3.1.3 1.4.9 4.3-1.4 4.9l-9.3 2.5c-1.6.5-1.8 1.9-1.6 3l.1.6 5.4 10.7c.6 1.3 2.1 2.3 3.9 2 1-.2 1.8-.8 2.7-1 1.3-.3 1.9.2 2.1 1.3.7 3.2-5 2.4-4.2 6 .7 3.3 3 7.8 6.7 7.1 3.4-.7 7.6-2.3 11.1-3.8 1.4-.3 2.1.5 2.3 1.4.2 1.1-.2 2.4-1.4 2.8l-19.4 8c-.7.3-5.4 1.7-5.3 1.6-1.8.4-2.8-.4-3.4-1.9l-5.6-13.7-1.3-3.5z" id="path19" fill="#fff"/><path class="st2" d="M443.8 138.6l-13.7-40.8-.1-.4c-.2-1.2-.2-3 .8-3.5l3.2-1.6 17.5-6.4c2.4-.5 5.2-.6 5.6 1.6 0 .1.1.1.1.2.3.6.7 1.5.9 2.4.2 1.2.1 2.4-.8 2.9-3.3 1.7-6.9 2.6-10.1 4.2-2.4 1.2-2.9 3.4-2.5 5.7.2.8.5 1.7.9 2.4 1.1 2.1 2.7 2.3 4.6 1.9 1.2-.2 2.5-.7 3.7-1 1.7-.3 3.2-.2 4.2 1.7.2.4.5 1.2.6 2 .2 1 .2 2-.5 2.4l-8.4 4.2c-1.2.6-1.5 2.2-1.2 3.5 0 .2.2.4.2.6l4.1 12 .4.9c.7 3.3-3.4 5.4-6.1 6.8-.3.1-.5.2-.8.3-1 .2-1.7-.2-2.3-1.3l-.3-.7z" id="path21" fill="#fff"/></g><g id="g23"><path class="st2" d="M311.6 200.3c-.1-1.4-.1-2.4 1.3-2.9 2.4-.5 4.2-.8 6.7-.9 7.5-.5 15.7.4 17.4 9.2.6 9.5-2.4 13.2-10.3 16.5-.1.1-.7.3-.9.3-3.6 1.1-5.8 1.7-7.4 1.8-1 .1-1.9-.4-2.2-1.5l-1.7-6.4-2.9-16.1zm4.9 5.1l3.5 14.4c.3 1.1 1.3 1.4 2.2 1.3 1.3-.1 2.4-.8 3.3-1.5 3.3-2.6 4.2-5.6 4-9.8-.4-6.9-3.8-7.4-10-7-2.4.1-3.1.5-3 2.2v.4z" id="path25" fill="#fff"/><path class="st2" d="M342.5 208.8l-3.4-12.5s-.1-.3-.1-.4c0-.7.2-1.2 1-1.4l14.5-3.9h.2c1.5-.1 1.9.9 2 2.3.1.9.2 2.8-1.3 3l-6 .8c-1 .2-1.3 1-1.3 1.8v.4l2.4 7.2c.3.9 1.1 1.7 2.3 1.6.6 0 1.2-.3 1.8-.4.8-.1 1.2.3 1.2 1 .1 2.1-3.3 1-3.2 3.4.1 2.1 1.2 5.2 3.6 5 2.2-.1 5-.8 7.3-1.4.9-.1 1.3.5 1.3 1.1 0 .7-.4 1.5-1.1 1.7l-12.9 3.3c-.4.1-3.5.6-3.5.6-1.2.1-1.8-.5-2-1.5l-2.3-9.1-.5-2.6z" id="path27" fill="#fff"/><path class="st2" d="M369.9 215h.4c2.5.5 5.4 1.3 8.1 1.1 2-.1 3.9-1.2 3.7-3.7-.3-4.6-5.3-4.7-9.8-6.5-2.4-1-5.8-2.6-6-5.8-.5-8 11.4-9.4 14.7-9.6 1.4.5 1.8 1.8 1.9 3.3.1 1.1-.3 1.6-1.2 1.9-3.2.5-7.8.4-7.6 3.3.1 1.1.9 1.7 1.8 2l6.6 2.2c3.2 1 5.2 4.1 5.5 7.6.4 6.6-3.3 9.3-12.5 9.9-1.6.1-3.3.2-5.2.1-1.2 0-1.7-1.1-1.7-2.2-.2-1.4-.3-3.5 1.3-3.6z" id="path29" fill="#fff"/><path class="st2" d="M418 216.2l-7.5-40.3v-.4c-.1-1.1.2-2.9 1.3-3.2l3.2-1.1 17.4-3.7c2.3-.1 5 .2 5.1 2.3 0 .1.1.1.1.2.2.6.4 1.5.5 2.4.1 1.2-.2 2.3-1.2 2.7-3.3 1.1-6.9 1.6-10.1 2.6-2.4.8-3.2 2.8-3.1 5 0 .8.2 1.6.5 2.4.7 2.1 2.3 2.5 4.1 2.4 1.2-.1 2.4-.3 3.6-.4 1.6-.1 3.1.2 3.7 2.2.1.4.3 1.2.3 2 .1 1-.1 1.9-.8 2.2l-8.5 2.8c-1.2.4-1.7 1.9-1.6 3.1 0 .2.1.4.1.6l2.3 11.8.3.9c.2 3.2-4 4.6-6.6 5.6-.3.1-.5.2-.8.2-.9.1-1.6-.4-2-1.5l-.3-.8z" id="path31" fill="#fff"/><path class="st2" d="M461.9 165.3c9.2-.6 15.6 3.5 20.1 12.7 1.2 2.5 1.5 4.4 1.7 7.8.8 13-10 23.3-21.5 24-9.4.6-18.4-4.9-19-15.6-.7-12.9 6-28.1 18.7-28.9zm5.1 27.2c5.1-.3 7.5-5.5 7.1-10.8-.3-4.6-3.6-7.5-7.6-7.3-5.3.3-7.3 4.4-7 10 .3 5.1 2.8 8.4 7.5 8.1z" id="path33" fill="#fff"/><path class="st2" d="M489.8 185.5l-.1-1c-.2-2.6-.2-6 0-11.1.1-3.6 2.2-3.7 6.3-4 2.2-.1 4 0 4.2 2.7.2 3.5-.5 6.9-.3 10.5.4 7 3.5 13.1 11.9 12.6 8.7-.5 8.3-7.8 7.7-16v-.8c-.1-2.1-.3-4.2-.4-4.9.4-2.5 3.7-2.9 6.3-3.1 4.5-.3 5.1.9 5.2 3.4l.1 2.1c.6 10-1.5 19.2-10.9 24.2-2.7 1.5-6.1 2.2-9.6 2.4-3.2.2-6.4 0-9.1-.6-7.3-1.7-10.1-6.3-11.3-13.3.2-.4 0-2.6 0-3.1z" id="path35" fill="#fff"/><path class="st2" d="M540.3 197.9h.6c3.8.8 8.1 1.9 12.2 1.7 3-.2 5.9-1.8 5.6-5.5-.4-6.9-8-7.1-14.6-9.7-3.6-1.4-8.7-3.8-9-8.7-.7-11.9 17.1-14.1 22-14.4 2.2.7 2.7 2.7 2.9 4.9.1 1.6-.5 2.4-1.8 2.8-4.9.7-11.7.7-11.4 5 .1 1.6 1.3 2.5 2.6 2.9l9.9 3.3c4.7 1.6 7.9 6.2 8.2 11.3.6 10-4.9 13.9-18.8 14.8-2.4.1-5 .2-7.9.2-1.8 0-2.5-1.6-2.6-3.3-.2-2-.3-5.1 2.1-5.3z" id="path37" fill="#fff"/></g><g id="g39" fill="#fff"><path d="M300.5 241.9c0-.6.7-1 1.1-1.1 1.7-.3 3.3-.4 4.7-.5 5.3-.3 8.5.8 8.6 4 0 1-.2 2.2-.8 2.9-.3.4-1.1 1.2-1.1 1.9 0 .5.4.8.9.9.2.1.4.1.6.2 3.1 1.2 5.9 2.3 6.1 6.2.2 3.3-2.3 5.6-5.2 6.1l-11.1 1.9h-.1c-.6 0-1.3.1-1.4-.8l-2.3-19.8v-1.9zm6.6 6.8c2-.1 4.5-1.6 4.4-3.9-.1-1.4-1-1.6-2-1.5-1.6.1-4.3.5-4.2 2.7 0 1.4.3 2.8 1.8 2.7zm.6 10c.5 1.7 1.5 1.7 2.8 1.7h.3c1.9-.1 5.7-.4 5.6-3.4-.1-2.7-3.2-3.4-5-3.3h-1c-1.4.1-3.5.3-3.4 2.1.1.9.4 2 .7 2.9z" id="path41"/><path d="M320.1 241.1c0-.9.5-2 1.5-2.1h.1c1.4.1 2.5 1.4 2.6 2.7v.2c0 1-.9 1.7-1.9 1.8h-.2c-1.3-.1-2.1-1.2-2.1-2.4v-.2zm4.4 5.1h.2c.5 0 .9.5 1 1l3.2 15.7v.2c-.1 1.3-2 1.1-3.3 1.4-.8 0-1.2-.7-1.4-1.4l-2.6-13.4c-.1-.2-.2-1.6-.2-1.6.2-1.2 2.1-1.8 3.1-1.9z" id="path43"/><path d="M329 259.7c0-.6.3-1.5 1-1.7.1 0 .2 0 .3-.1h.3c1.5.4 2.9 1 4.4.9.3 0 .6-.1.9-.1 1.2-.3 2.2-1.2 2.1-2.4 0-.1 0-.2-.1-.4-.3-.9-1.3-1.4-5.9-1.6-1.7 0-2.9-1-3.3-2.4 0-.2-.1-.4-.1-.6v-.2c0-.5 0-1 .2-1.6.8-2.7 4.2-4.1 6.7-4.2 2-.1 4.3.5 5.9 1.3.2.2.4.4.4.6v.2c0 .8-1.2 1.7-1.3 1.8h-.6l-.3-.1c-1-.3-2-.6-3.1-.5-.3 0-.6.1-.9.1-1 .2-2.6 1-2.6 2.2l.1.2c.2.8 1.1.9 1.8.9 3 .1 6.6.2 7.4 3.1.1.2.1.4.1.6v.2c0 2.9-3.4 5.3-6.5 5.4-2.4.1-6.4-.1-6.9-1.4v-.2z" id="path45"/><path d="M344.4 249.1c-.4-3.5-2-.4-2.3-3.6v-.3c-.1-1.8 1.2-1.2 1.6-2.6.1-.2.1-.6.1-.9 0-.7-.2-1.6-.2-2.3 0-.7 0-1.4.5-1.6.3 0 .7-.2 1.2-.2h.2c.7 0 1.5.1 2.1.9l.4 3.1c0 .1.2.5.3.7.7 1.1 1.8-.3 2 1.8 0 .2.1.3.1.5.2 3.2-2.5.3-2.2 4.8 0 .3 0 .7.1 1.1l.2 1.9c.2 2 .7 4.2 1.9 5.4.8.7 2.9-.3 3 1.2l.2 2v.1c.1 1-1 1.2-1.7 1.3h-.4c-4.1.2-5.8-3.7-6.5-9.6l-.1-.3c-.3-1.1-.4-2.3-.5-3.4z" id="path47"/><path d="M354.9 246.2c.8 0 1.1.9 1.9.8.3 0 .5 0 .8-.3 1.8-1.4 3.4-3.2 5.6-3.4.7 0 1.7.9 1.7 1.5 0 .3-.1.5-.4.7-1.7 1-2.9 1.8-4.4 3-1.9 1.5-2.6 2.6-2.4 5v.3c0 .9.2 3.2 1.2 7.7v.2c.1 1.1-1.4 1.4-2.2 1.4-.6 0-1-.5-1.1-1.1l-2.7-14.5v-.2c-.1-.8 1.2-1 2-1.1z" id="path49"/><path d="M366.6 247.6c1.6-3.1 3.6-4.9 7.3-5.1 3.5-.2 6.8 1.9 8.3 4.8.6 1.1.8 2.1.9 3.2.2 4.7-3.9 9.2-9.1 9.4-4.7.2-8.2-2.2-8.5-7-.2-1.7.2-3.6 1.1-5.3zm7.5 9.5c3.5-.2 4.8-2.8 4.7-5.9-.1-2.4-1.2-5.9-4.2-5.8-3.8.2-5.7 3.3-5.5 6.7.1 3 1.7 5.1 5 5z" id="path51"/><path d="M385.4 263.5c-.1-1.2-1.7-1.1-1.8-2.7-.1-1.4.9-2.3 1.9-2.4 1.1-.1 2.4.5 2.5 2.2.1 2-1.7 4.5-2.6 4.6-.1 0-.2 0-.2-.3 0-.4.2-.9.2-1.4z" id="path53"/><path d="M398 258l2.3-10.5c-.1.2.7-4.3 2.2-4.4.8 0 1.9.1 2.6.8.4.5.2 1.8 1.1 1.7 1.2-.1 2-1.6 3.4-1.6 2.8-.1 4.9 3.7 6.7 3.6 1.8-.1 3.2-2.4 5.5-2.5.6 0 1 .1 1.5.5 2.8 1.9 5 4 7.3 6.5.1.1.1.2.1.3 0 .8-1.2 2-2.2 2-1 .1-2.9-2.3-4.5-4-.7-.7-1.9-1.8-3-1.7-2 .1-3.8 3.6-5 3.7-.7 0-1.5-1.3-2.3-2.2l-.2-.2c-.9-.8-2.9-2.7-4-2.6-.7 0-1.1.4-1.7.7-3.7 2.3-3.6 3.9-4.3 6.9-.1.5-.2 1.6-.3 2.5-.1.8 0 2.1-1.1 2.1-1 0-1.8-.1-2.8-.2-.7-.1-1-.4-1.1-1.1l-.2-.3z" id="path55"/><path d="M431.7 248.1c1.5-3.1 5.6-3.8 8.8-4h1.4c.6-.1 1.1-.5 1-1.1 0-.7-.4-1.4-.8-1.9-1-1.4-2.2-2-3.8-2-.9 0-1.8.4-2.7.4-.8 0-1.7-.7-1.8-1.5-.1-1.4 3.1-1.8 4-1.9 3.6-.2 7.4 1.2 8.6 5.4.2.7.7 2.6 1.7 10.9.1 1.2-.9 1.4-1.9 1.5-.9 0-1.2-.9-2-.9h-.2c-.1 0-.3 0-.4.1-1.5 1.1-4.7 2.4-7.5 2.5-2.8.1-5.2-.8-5.4-4.1 0-1.1.4-2.2 1-3.4zm5.9 4.6c2.1-.1 6.6-1.8 6.5-3.6-.1-1.6-1.6-2-3-2-2.4.1-6.4.5-6.2 3.8.1 1.5 1 1.9 2.7 1.8z" id="path57"/><path d="M447.5 234.6c0-.9.5-2 1.5-2.1h.1c1.4.1 2.5 1.4 2.6 2.7v.2c0 1-.9 1.7-1.9 1.8h-.2c-1.3-.1-2.1-1.2-2.1-2.4v-.2zm4.4 5.1h.2c.5 0 .9.5 1 1l3.2 15.7v.2c-.1 1.3-2 1.1-3.3 1.4-.8 0-1.2-.7-1.4-1.4l-2.6-13.4c-.1-.2-.2-1.6-.2-1.6.1-1.2 2.1-1.8 3.1-1.9z" id="path59"/><path d="M456.3 253.2c0-.6.3-1.5 1-1.7.1 0 .2 0 .3-.1h.3c1.5.4 2.9 1 4.4.9.3 0 .6-.1.9-.1 1.2-.3 2.2-1.2 2.1-2.4 0-.1 0-.2-.1-.4-.3-.9-1.3-1.4-5.9-1.6-1.7 0-2.9-1-3.3-2.4 0-.2-.1-.4-.1-.6v-.2c0-.5 0-1 .2-1.6.8-2.7 4.2-4.1 6.7-4.2 2-.1 4.3.5 5.9 1.3.2.2.4.4.4.6v.2c0 .8-1.2 1.7-1.3 1.8h-.6l-.3-.1c-1-.3-2-.6-3.1-.5-.3 0-.6.1-.9.1-1 .2-2.6 1-2.6 2.2l.1.2c.2.8 1.1.9 1.8.9 3 .1 6.6.2 7.4 3.1.1.2.1.4.1.6v.2c0 2.9-3.4 5.3-6.5 5.4-2.4.1-6.4-.1-6.9-1.4.1 0 0 0 0-.2z" id="path61"/><path d="M481 238.2c2-.1 1.3 1.5 2.6 1.9 1.8-.1 3.6-.6 5.4-.6 4.5-.2 8.2 1.1 8.4 6.1.2 4.6-4.4 5.7-7.9 6.5-1.2.3-2.9 0-2.8 1.7 0 .1.1.4.1.4l1.4 4.6v.2c.1 1.1-1.8 1.6-2.6 1.7-.5 0-.9-.3-1-.8l-5.3-20.3v-.2c0-1 .9-1.2 1.7-1.2zm6.1 12h.3c.2 0 .4-.1.7-.1 2.7-.9 5.9-1.5 5.8-3.8-.1-2.3-2.2-3.1-4.3-3-2.1.1-4.2 1.1-4.7 2.5.4 2 .6 4.5 2.2 4.4z" id="path63"/><path d="M498.7 244.7c1.5-3.1 5.6-3.8 8.8-4h1.4c.6-.1 1.1-.5 1-1.1 0-.7-.4-1.4-.8-1.9-1-1.4-2.2-2-3.8-2-.9 0-1.8.4-2.7.4-.8 0-1.7-.7-1.8-1.5-.1-1.4 3.1-1.8 4-1.9 3.6-.2 7.4 1.2 8.6 5.4.2.7.7 2.6 1.7 10.9.1 1.2-.9 1.4-1.9 1.5-.9 0-1.2-.9-2-.9h-.2c-.1 0-.3 0-.4.1-1.5 1.1-4.7 2.4-7.5 2.5-2.8.1-5.2-.8-5.4-4.1 0-1.1.5-2.2 1-3.4zm5.9 4.6c2.1-.1 6.6-1.8 6.5-3.6-.1-1.6-1.6-2-3-2-2.4.1-6.4.5-6.2 3.8.1 1.4 1.1 1.9 2.7 1.8z" id="path65"/><path d="M515.5 250.2c0-.6.3-1.5 1-1.7.1 0 .2 0 .3-.1h.3c1.5.4 2.9 1 4.4.9.3 0 .6-.1.9-.1 1.2-.3 2.2-1.2 2.1-2.4 0-.1 0-.2-.1-.4-.3-.9-1.3-1.4-5.9-1.6-1.7 0-2.9-1-3.3-2.4 0-.2-.1-.4-.1-.6v-.2c0-.5 0-1 .2-1.6.8-2.7 4.2-4.1 6.7-4.2 2-.1 4.3.5 5.9 1.3.2.2.4.4.4.6v.2c0 .8-1.2 1.7-1.3 1.8h-.6l-.3-.1c-1-.3-2-.6-3.1-.5-.3 0-.6.1-.9.1-1 .2-2.6 1-2.6 2.2l.1.2c.2.8 1.1.9 1.8.9 3 .1 6.6.2 7.4 3.1.1.2.1.4.1.6v.2c0 2.9-3.4 5.3-6.5 5.4-2.4.1-6.4-.1-6.9-1.4.1 0 0 0 0-.2z" id="path67"/><path d="M551.7 253.8l-.1-3.4-.3-1.1c0-.1-.4-.6-.7-.5-3.7.2-4.7 0-4.9 0-3.6-.8-6.7-3-6.9-6.6-.2-4 2.8-7.3 7-7.5 1.8-.1 3.4.1 5.2 0 .8 0 1.3-.5 2.1-.5.6 0 1.5 0 1.7.9v.3c.1 1.7-.1 3.7-.2 5.3.2 14.2-1 14.3-1.8 14.4-.6 0-1-.3-1.1-.8v-.5zm-2.7-8.5c1.2-.1 2-.4 1.7-5 0-.8-.1-1.1-.1-1.2-.3-1.3-1.4-1.7-2.6-1.7-2.3.1-5.2 2-5.1 3.7 0 .3.1.7.2 1.1.6 2.6 3.7 3.2 5.9 3.1z" id="path69"/><path d="M555.3 240c-.1-1.7.1-3.7 2.3-3.8.9 0 1.7.2 1.7 1 .1 1 0 2.1 0 3.1.2 3.3 1.1 6.8 5.8 6.5 2.6-.1 4.6-1.5 4.5-3.8-.1-1-.2-2-.2-3.1-.1-1.3 2.2-1.8 3.3-1.8.8 0 1.3.4 1.6 1l2.6 6.2c0 .7-.3 2.2-1.7 2.3-1.1.1-1-1.6-2.2-1.5-.8 0-1.1.7-1.5 1.1-1.9 1.9-3.9 2.8-6.3 3-1 .1-2.2-.1-3.5-.3h-.2c-4.8-.9-5.9-4.8-6.1-8.4 0-.4-.1-.9-.1-1.5z" id="path71"/><path d="M586.6 230.7c2.5-.1 4.9 1.3 5.6 3.8.2.9.9 3.3.9 4.5 0 .3-.4.7-.7.7-.8.3-6.4 1.7-9.8 2.5-.7.2-1.5.5-1.4 1.4.2 3.1 3.9 3.8 6.2 3.7 1.2-.1 2.3-.3 3.5-.8.9-.4 1.7-1.1 2.8-1.2.9 0 2 1.2 2 2.1.1 1.6-4.9 2.8-6.3 2.9-5.3.3-12.1-1.5-12.4-7.8-.2-5 4.2-11.5 9.6-11.8zm-3.8 9h.1s3.1-.7 4.6-1.1c.9-.2 1.3-.9 1.3-1.8-.1-1.4-.7-3.3-2.4-3.2-1.9.1-4.9 3.6-4.8 5.3 0 .6.6.8 1.2.8z" id="path73"/><path d="M604.6 224.4c0-.8 1.2-.9 2.3-1 1.1-.1 2 0 2 1.2.3 6.1.4 12.1.8 19 0 .6-.4 1-1 1-1.3.1-2-.6-2.1-1.6l-2-18.6zm4 22.1c1.1-.1 2.1.6 2.1 1.5 0 .8-.7 1.6-1.7 1.6-1 .1-2.2-.5-2.3-1.4 0-.9.8-1.7 1.9-1.7z" id="path75"/></g><path class="st4" id="polygon81" d="M503.3 91.1l38.5-21.2 6.8 46-38.1 4.8z" fill="#ecdfab"/></g></svg>