<?xml version="1.0" encoding="UTF-8" standalone="no"?>
<!-- Generator: Adobe Illustrator 21.0.0, SVG Export Plug-In . SVG Version: 6.00 Build 0)  -->

<svg
   xmlns:dc="http://purl.org/dc/elements/1.1/"
   xmlns:cc="http://creativecommons.org/ns#"
   xmlns:rdf="http://www.w3.org/1999/02/22-rdf-syntax-ns#"
   xmlns:svg="http://www.w3.org/2000/svg"
   xmlns="http://www.w3.org/2000/svg"
   xmlns:sodipodi="http://sodipodi.sourceforge.net/DTD/sodipodi-0.dtd"
   xmlns:inkscape="http://www.inkscape.org/namespaces/inkscape"
   version="1.1"
   id="Calque_1"
   x="0px"
   y="0px"
   viewBox="0 0 368.7 209.39999"
   xml:space="preserve"
   inkscape:version="0.91 r13725"
   sodipodi:docname="logo-black.svg"
   width="368.70001"
   height="209.39999"><defs
     id="defs14797" /><sodipodi:namedview
     pagecolor="#ffffff"
     bordercolor="#666666"
     borderopacity="1"
     objecttolerance="10"
     gridtolerance="10"
     guidetolerance="10"
     inkscape:pageopacity="0"
     inkscape:pageshadow="2"
     inkscape:window-width="1920"
     inkscape:window-height="1029"
     id="namedview14795"
     showgrid="false"
     fit-margin-top="0"
     fit-margin-left="0"
     fit-margin-right="0"
     fit-margin-bottom="0"
     inkscape:zoom="0.48293722"
     inkscape:cx="-271.48928"
     inkscape:cy="66.649997"
     inkscape:window-x="0"
     inkscape:window-y="0"
     inkscape:window-maximized="1"
     inkscape:current-layer="Calque_1" /><g
     id="g5"
     transform="translate(-242.5,-55.8)"><polygon
       class="st0"
       points="281.5,236.7 292.8,174.3 559.7,132.3 611.2,213.2 "
       id="polygon7"
       style="fill:#db5a31" /><polygon
       class="st1"
       points="267,195.4 242.5,140.7 473.2,55.8 486.2,145.2 "
       id="polygon9"
       style="fill:#62a297" /><g
       id="g11"><path
         class="st2"
         d="m 270.8,175.3 c -1.5,-7.3 -3.2,-21.4 -3.3,-22.7 -0.1,-1.5 1.1,-2.4 2.1,-2.6 1.5,-0.3 2.6,0 2.9,1.5 l 0,0.2 c 1.1,7.2 1.9,12.1 2.6,15.3 1.2,6 2,6.5 3.8,6.2 l 10.5,-3.3 c 0.8,-0.4 1.2,-0.6 1.9,-0.7 1.3,-0.3 1.7,0.7 2,1.8 0.3,1.5 -0.4,2.1 -1.4,2.5 -10.9,4.4 -6.9,1.8 -18,6.6 -1.1,0.2 -1.5,0.2 -2,-0.6 -0.3,-0.7 -0.7,-2.2 -1.1,-4.2 z"
         id="path13"
         inkscape:connector-curvature="0"
         style="fill:#ffffff" /><path
         class="st2"
         d="m 303.9,164.4 c -3.5,1.4 -1.2,5.3 -4.1,5.9 -1.4,0.3 -3.7,0.5 -4.1,-1.4 -0.4,-1.8 2.2,-9.7 3.7,-14.7 0.8,-2.7 0.7,-5.4 2.6,-5.8 0.1,0 0.5,0 0.5,-0.1 l 28.2,10 0.2,0.1 c 0.9,0.3 1.5,0.5 1.7,1.5 l 0.1,0.3 c 0,0.2 0.1,0.4 0,0.6 l -2.3,3.7 c -0.1,0.4 -0.7,0.5 -1,0.6 -0.5,0.1 -0.6,0.1 -1.2,-0.1 -3.8,-0.9 -7.2,-3.4 -11.1,-3.4 -5,1 -8.6,1.8 -13.2,2.8 z m 3.3,-4.9 0.2,0 c 1.3,-0.3 2.7,-0.6 2.4,-1.9 -0.3,-1.3 -3.9,-3.5 -5.3,-3.2 -1.4,0.3 -1.7,2.6 -1.4,3.8 0.6,2 2.6,1.6 4.1,1.3 z"
         id="path15"
         inkscape:connector-curvature="0"
         style="fill:#ffffff" /><path
         class="st2"
         d="m 342.5,122.6 c 0.4,-0.2 0.9,-0.2 1.4,-0.1 10.4,4.2 24.4,12.2 32.9,7.7 1.3,-0.7 1.2,-2.5 0.6,-4.5 -0.9,-2.9 -2.3,-5.4 -3.2,-8.5 -1.5,-4.9 1,-6.5 3.5,-7.8 0.9,-0.5 2.4,-1.3 3,0.8 2.2,7.3 5.2,14.5 7.3,21.4 3.4,11.3 7.8,15.1 6.1,16.8 -2.8,2.8 -16.6,-5.4 -25.2,-4.9 0,0 -3.6,0.3 -8.2,2.7 -1.5,0.8 -2.2,2.3 -1.4,5 0.5,1.7 1.5,3 2,4.7 1.1,3.8 -2.7,6.3 -4.2,7.2 -1.8,1 -2.5,-0.8 -3.3,-2.7 l -12.2,-30.5 c 0,-0.1 -0.4,-1 -0.5,-1.3 -0.8,-2.6 0,-5.3 1.4,-6 z"
         id="path17"
         inkscape:connector-curvature="0"
         style="fill:#ffffff" /><path
         class="st2"
         d="m 396.9,127.1 -8,-18.8 c 0,0 -0.2,-0.5 -0.2,-0.7 -0.2,-1 0,-1.9 1.2,-2.4 l 21.8,-9.2 0.3,0 c 2.3,-0.5 3.1,0.9 3.5,3.1 0.3,1.4 0.9,4.3 -1.4,4.9 l -9.3,2.5 c -1.6,0.5 -1.8,1.9 -1.6,3 l 0.1,0.6 5.4,10.7 c 0.6,1.3 2.1,2.3 3.9,2 1,-0.2 1.8,-0.8 2.7,-1 1.3,-0.3 1.9,0.2 2.1,1.3 0.7,3.2 -5,2.4 -4.2,6 0.7,3.3 3,7.8 6.7,7.1 3.4,-0.7 7.6,-2.3 11.1,-3.8 1.4,-0.3 2.1,0.5 2.3,1.4 0.2,1.1 -0.2,2.4 -1.4,2.8 l -19.4,8 c -0.7,0.3 -5.4,1.7 -5.3,1.6 -1.8,0.4 -2.8,-0.4 -3.4,-1.9 l -5.6,-13.7 -1.3,-3.5 z"
         id="path19"
         inkscape:connector-curvature="0"
         style="fill:#ffffff" /><path
         class="st2"
         d="M 443.8,138.6 430.1,97.8 430,97.4 c -0.2,-1.2 -0.2,-3 0.8,-3.5 l 3.2,-1.6 17.5,-6.4 c 2.4,-0.5 5.2,-0.6 5.6,1.6 0,0.1 0.1,0.1 0.1,0.2 0.3,0.6 0.7,1.5 0.9,2.4 0.2,1.2 0.1,2.4 -0.8,2.9 -3.3,1.7 -6.9,2.6 -10.1,4.2 -2.4,1.2 -2.9,3.4 -2.5,5.7 0.2,0.8 0.5,1.7 0.9,2.4 1.1,2.1 2.7,2.3 4.6,1.9 1.2,-0.2 2.5,-0.7 3.7,-1 1.7,-0.3 3.2,-0.2 4.2,1.7 0.2,0.4 0.5,1.2 0.6,2 0.2,1 0.2,2 -0.5,2.4 l -8.4,4.2 c -1.2,0.6 -1.5,2.2 -1.2,3.5 0,0.2 0.2,0.4 0.2,0.6 l 4.1,12 0.4,0.9 c 0.7,3.3 -3.4,5.4 -6.1,6.8 -0.3,0.1 -0.5,0.2 -0.8,0.3 -1,0.2 -1.7,-0.2 -2.3,-1.3 l -0.3,-0.7 z"
         id="path21"
         inkscape:connector-curvature="0"
         style="fill:#ffffff" /></g><g
       id="g23"><path
         class="st2"
         d="m 311.6,200.3 c -0.1,-1.4 -0.1,-2.4 1.3,-2.9 2.4,-0.5 4.2,-0.8 6.7,-0.9 7.5,-0.5 15.7,0.4 17.4,9.2 0.6,9.5 -2.4,13.2 -10.3,16.5 -0.1,0.1 -0.7,0.3 -0.9,0.3 -3.6,1.1 -5.8,1.7 -7.4,1.8 -1,0.1 -1.9,-0.4 -2.2,-1.5 l -1.7,-6.4 -2.9,-16.1 z m 4.9,5.1 3.5,14.4 c 0.3,1.1 1.3,1.4 2.2,1.3 1.3,-0.1 2.4,-0.8 3.3,-1.5 3.3,-2.6 4.2,-5.6 4,-9.8 -0.4,-6.9 -3.8,-7.4 -10,-7 -2.4,0.1 -3.1,0.5 -3,2.2 l 0,0.4 z"
         id="path25"
         inkscape:connector-curvature="0"
         style="fill:#ffffff" /><path
         class="st2"
         d="m 342.5,208.8 -3.4,-12.5 c 0,0 -0.1,-0.3 -0.1,-0.4 0,-0.7 0.2,-1.2 1,-1.4 l 14.5,-3.9 0.2,0 c 1.5,-0.1 1.9,0.9 2,2.3 0.1,0.9 0.2,2.8 -1.3,3 l -6,0.8 c -1,0.2 -1.3,1 -1.3,1.8 l 0,0.4 2.4,7.2 c 0.3,0.9 1.1,1.7 2.3,1.6 0.6,0 1.2,-0.3 1.8,-0.4 0.8,-0.1 1.2,0.3 1.2,1 0.1,2.1 -3.3,1 -3.2,3.4 0.1,2.1 1.2,5.2 3.6,5 2.2,-0.1 5,-0.8 7.3,-1.4 0.9,-0.1 1.3,0.5 1.3,1.1 0,0.7 -0.4,1.5 -1.1,1.7 l -12.9,3.3 c -0.4,0.1 -3.5,0.6 -3.5,0.6 -1.2,0.1 -1.8,-0.5 -2,-1.5 l -2.3,-9.1 -0.5,-2.6 z"
         id="path27"
         inkscape:connector-curvature="0"
         style="fill:#ffffff" /><path
         class="st2"
         d="m 369.9,215 c 0,0 0.4,0 0.4,0 2.5,0.5 5.4,1.3 8.1,1.1 2,-0.1 3.9,-1.2 3.7,-3.7 -0.3,-4.6 -5.3,-4.7 -9.8,-6.5 -2.4,-1 -5.8,-2.6 -6,-5.8 -0.5,-8 11.4,-9.4 14.7,-9.6 1.4,0.5 1.8,1.8 1.9,3.3 0.1,1.1 -0.3,1.6 -1.2,1.9 -3.2,0.5 -7.8,0.4 -7.6,3.3 0.1,1.1 0.9,1.7 1.8,2 l 6.6,2.2 c 3.2,1 5.2,4.1 5.5,7.6 0.4,6.6 -3.3,9.3 -12.5,9.9 -1.6,0.1 -3.3,0.2 -5.2,0.1 -1.2,0 -1.7,-1.1 -1.7,-2.2 -0.2,-1.4 -0.3,-3.5 1.3,-3.6 z"
         id="path29"
         inkscape:connector-curvature="0"
         style="fill:#ffffff" /><path
         class="st2"
         d="m 418,216.2 -7.5,-40.3 0,-0.4 c -0.1,-1.1 0.2,-2.9 1.3,-3.2 l 3.2,-1.1 17.4,-3.7 c 2.3,-0.1 5,0.2 5.1,2.3 0,0.1 0.1,0.1 0.1,0.2 0.2,0.6 0.4,1.5 0.5,2.4 0.1,1.2 -0.2,2.3 -1.2,2.7 -3.3,1.1 -6.9,1.6 -10.1,2.6 -2.4,0.8 -3.2,2.8 -3.1,5 0,0.8 0.2,1.6 0.5,2.4 0.7,2.1 2.3,2.5 4.1,2.4 1.2,-0.1 2.4,-0.3 3.6,-0.4 1.6,-0.1 3.1,0.2 3.7,2.2 0.1,0.4 0.3,1.2 0.3,2 0.1,1 -0.1,1.9 -0.8,2.2 l -8.5,2.8 c -1.2,0.4 -1.7,1.9 -1.6,3.1 0,0.2 0.1,0.4 0.1,0.6 l 2.3,11.8 0.3,0.9 c 0.2,3.2 -4,4.6 -6.6,5.6 -0.3,0.1 -0.5,0.2 -0.8,0.2 -0.9,0.1 -1.6,-0.4 -2,-1.5 l -0.3,-0.8 z"
         id="path31"
         inkscape:connector-curvature="0"
         style="fill:#ffffff" /><path
         class="st2"
         d="m 461.9,165.3 c 9.2,-0.6 15.6,3.5 20.1,12.7 1.2,2.5 1.5,4.4 1.7,7.8 0.8,13 -10,23.3 -21.5,24 -9.4,0.6 -18.4,-4.9 -19,-15.6 -0.7,-12.9 6,-28.1 18.7,-28.9 z m 5.1,27.2 c 5.1,-0.3 7.5,-5.5 7.1,-10.8 -0.3,-4.6 -3.6,-7.5 -7.6,-7.3 -5.3,0.3 -7.3,4.4 -7,10 0.3,5.1 2.8,8.4 7.5,8.1 z"
         id="path33"
         inkscape:connector-curvature="0"
         style="fill:#ffffff" /><path
         class="st2"
         d="m 489.8,185.5 -0.1,-1 c -0.2,-2.6 -0.2,-6 0,-11.1 0.1,-3.6 2.2,-3.7 6.3,-4 2.2,-0.1 4,0 4.2,2.7 0.2,3.5 -0.5,6.9 -0.3,10.5 0.4,7 3.5,13.1 11.9,12.6 8.7,-0.5 8.3,-7.8 7.7,-16 l 0,-0.8 c -0.1,-2.1 -0.3,-4.2 -0.4,-4.9 0.4,-2.5 3.7,-2.9 6.3,-3.1 4.5,-0.3 5.1,0.9 5.2,3.4 l 0.1,2.1 c 0.6,10 -1.5,19.2 -10.9,24.2 -2.7,1.5 -6.1,2.2 -9.6,2.4 -3.2,0.2 -6.4,0 -9.1,-0.6 -7.3,-1.7 -10.1,-6.3 -11.3,-13.3 0.2,-0.4 0,-2.6 0,-3.1 z"
         id="path35"
         inkscape:connector-curvature="0"
         style="fill:#ffffff" /><path
         class="st2"
         d="m 540.3,197.9 c 0,0 0.5,0 0.6,0 3.8,0.8 8.1,1.9 12.2,1.7 3,-0.2 5.9,-1.8 5.6,-5.5 -0.4,-6.9 -8,-7.1 -14.6,-9.7 -3.6,-1.4 -8.7,-3.8 -9,-8.7 -0.7,-11.9 17.1,-14.1 22,-14.4 2.2,0.7 2.7,2.7 2.9,4.9 0.1,1.6 -0.5,2.4 -1.8,2.8 -4.9,0.7 -11.7,0.7 -11.4,5 0.1,1.6 1.3,2.5 2.6,2.9 l 9.9,3.3 c 4.7,1.6 7.9,6.2 8.2,11.3 0.6,10 -4.9,13.9 -18.8,14.8 -2.4,0.1 -5,0.2 -7.9,0.2 -1.8,0 -2.5,-1.6 -2.6,-3.3 -0.2,-2 -0.3,-5.1 2.1,-5.3 z"
         id="path37"
         inkscape:connector-curvature="0"
         style="fill:#ffffff" /></g><g
       id="g39"><path
         d="m 300.5,241.9 c 0,-0.6 0.7,-1 1.1,-1.1 1.7,-0.3 3.3,-0.4 4.7,-0.5 5.3,-0.3 8.5,0.8 8.6,4 0,1 -0.2,2.2 -0.8,2.9 -0.3,0.4 -1.1,1.2 -1.1,1.9 0,0.5 0.4,0.8 0.9,0.9 0.2,0.1 0.4,0.1 0.6,0.2 3.1,1.2 5.9,2.3 6.1,6.2 0.2,3.3 -2.3,5.6 -5.2,6.1 l -11.1,1.9 -0.1,0 c -0.6,0 -1.3,0.1 -1.4,-0.8 l -2.3,-19.8 0,-1.9 z m 6.6,6.8 c 2,-0.1 4.5,-1.6 4.4,-3.9 -0.1,-1.4 -1,-1.6 -2,-1.5 -1.6,0.1 -4.3,0.5 -4.2,2.7 0,1.4 0.3,2.8 1.8,2.7 z m 0.6,10 c 0.5,1.7 1.5,1.7 2.8,1.7 l 0.3,0 c 1.9,-0.1 5.7,-0.4 5.6,-3.4 -0.1,-2.7 -3.2,-3.4 -5,-3.3 l -1,0 c -1.4,0.1 -3.5,0.3 -3.4,2.1 0.1,0.9 0.4,2 0.7,2.9 z"
         id="path41"
         inkscape:connector-curvature="0" /><path
         d="m 320.1,241.1 c 0,-0.9 0.5,-2 1.5,-2.1 l 0.1,0 c 1.4,0.1 2.5,1.4 2.6,2.7 l 0,0.2 c 0,1 -0.9,1.7 -1.9,1.8 l -0.2,0 c -1.3,-0.1 -2.1,-1.2 -2.1,-2.4 l 0,-0.2 z m 4.4,5.1 0.2,0 c 0.5,0 0.9,0.5 1,1 l 3.2,15.7 0,0.2 c -0.1,1.3 -2,1.1 -3.3,1.4 -0.8,0 -1.2,-0.7 -1.4,-1.4 l -2.6,-13.4 c -0.1,-0.2 -0.2,-1.6 -0.2,-1.6 0.2,-1.2 2.1,-1.8 3.1,-1.9 z"
         id="path43"
         inkscape:connector-curvature="0" /><path
         d="m 329,259.7 c 0,-0.6 0.3,-1.5 1,-1.7 0.1,0 0.2,0 0.3,-0.1 0.1,0 0.2,0 0.3,0 1.5,0.4 2.9,1 4.4,0.9 0.3,0 0.6,-0.1 0.9,-0.1 1.2,-0.3 2.2,-1.2 2.1,-2.4 0,-0.1 0,-0.2 -0.1,-0.4 -0.3,-0.9 -1.3,-1.4 -5.9,-1.6 -1.7,0 -2.9,-1 -3.3,-2.4 0,-0.2 -0.1,-0.4 -0.1,-0.6 l 0,-0.2 c 0,-0.5 0,-1 0.2,-1.6 0.8,-2.7 4.2,-4.1 6.7,-4.2 2,-0.1 4.3,0.5 5.9,1.3 0.2,0.2 0.4,0.4 0.4,0.6 0,0 0,0.1 0,0.1 l 0,0.1 c 0,0.8 -1.2,1.7 -1.3,1.8 l -0.2,0 c -0.1,0 -0.2,0 -0.4,0 l -0.3,-0.1 c -1,-0.3 -2,-0.6 -3.1,-0.5 -0.3,0 -0.6,0.1 -0.9,0.1 -1,0.2 -2.6,1 -2.6,2.2 l 0.1,0.2 c 0.2,0.8 1.1,0.9 1.8,0.9 3,0.1 6.6,0.2 7.4,3.1 0.1,0.2 0.1,0.4 0.1,0.6 l 0,0.2 c 0,2.9 -3.4,5.3 -6.5,5.4 -2.4,0.1 -6.4,-0.1 -6.9,-1.4 0,0 0,0 0,-0.2 z"
         id="path45"
         inkscape:connector-curvature="0" /><path
         d="m 344.4,249.1 c -0.4,-3.5 -2,-0.4 -2.3,-3.6 l 0,-0.3 c -0.1,-1.8 1.2,-1.2 1.6,-2.6 0.1,-0.2 0.1,-0.6 0.1,-0.9 0,-0.7 -0.2,-1.6 -0.2,-2.3 0,-0.7 0,-1.4 0.5,-1.6 0.3,0 0.7,-0.2 1.2,-0.2 l 0.2,0 c 0.7,0 1.5,0.1 2.1,0.9 l 0.4,3.1 c 0,0.1 0.2,0.5 0.3,0.7 0.7,1.1 1.8,-0.3 2,1.8 0,0.2 0.1,0.3 0.1,0.5 0.2,3.2 -2.5,0.3 -2.2,4.8 0,0.3 0,0.7 0.1,1.1 l 0.2,1.9 c 0.2,2 0.7,4.2 1.9,5.4 0.8,0.7 2.9,-0.3 3,1.2 l 0.2,2 0,0.1 c 0.1,1 -1,1.2 -1.7,1.3 l -0.4,0 c -4.1,0.2 -5.8,-3.7 -6.5,-9.6 l -0.1,-0.3 c -0.3,-1.1 -0.4,-2.3 -0.5,-3.4 z"
         id="path47"
         inkscape:connector-curvature="0" /><path
         d="m 354.9,246.2 c 0.8,0 1.1,0.9 1.9,0.8 0.3,0 0.5,0 0.8,-0.3 1.8,-1.4 3.4,-3.2 5.6,-3.4 0.7,0 1.7,0.9 1.7,1.5 0,0.3 -0.1,0.5 -0.4,0.7 -1.7,1 -2.9,1.8 -4.4,3 -1.9,1.5 -2.6,2.6 -2.4,5 l 0,0.3 c 0,0.9 0.2,3.2 1.2,7.7 l 0,0.2 c 0.1,1.1 -1.4,1.4 -2.2,1.4 -0.6,0 -1,-0.5 -1.1,-1.1 l -2.7,-14.5 0,-0.2 c -0.1,-0.8 1.2,-1 2,-1.1 z"
         id="path49"
         inkscape:connector-curvature="0" /><path
         d="m 366.6,247.6 c 1.6,-3.1 3.6,-4.9 7.3,-5.1 3.5,-0.2 6.8,1.9 8.3,4.8 0.6,1.1 0.8,2.1 0.9,3.2 0.2,4.7 -3.9,9.2 -9.1,9.4 -4.7,0.2 -8.2,-2.2 -8.5,-7 -0.2,-1.7 0.2,-3.6 1.1,-5.3 z m 7.5,9.5 c 3.5,-0.2 4.8,-2.8 4.7,-5.9 -0.1,-2.4 -1.2,-5.9 -4.2,-5.8 -3.8,0.2 -5.7,3.3 -5.5,6.7 0.1,3 1.7,5.1 5,5 z"
         id="path51"
         inkscape:connector-curvature="0" /><path
         d="m 385.4,263.5 c -0.1,-1.2 -1.7,-1.1 -1.8,-2.7 -0.1,-1.4 0.9,-2.3 1.9,-2.4 1.1,-0.1 2.4,0.5 2.5,2.2 0.1,2 -1.7,4.5 -2.6,4.6 -0.1,0 -0.2,0 -0.2,-0.3 0,-0.4 0.2,-0.9 0.2,-1.4 z"
         id="path53"
         inkscape:connector-curvature="0" /><path
         d="m 398,258 2.3,-10.5 c -0.1,0.2 0.7,-4.3 2.2,-4.4 0.8,0 1.9,0.1 2.6,0.8 0.4,0.5 0.2,1.8 1.1,1.7 1.2,-0.1 2,-1.6 3.4,-1.6 2.8,-0.1 4.9,3.7 6.7,3.6 1.8,-0.1 3.2,-2.4 5.5,-2.5 0.6,0 1,0.1 1.5,0.5 2.8,1.9 5,4 7.3,6.5 0.1,0.1 0.1,0.2 0.1,0.3 0,0.8 -1.2,2 -2.2,2 -1,0.1 -2.9,-2.3 -4.5,-4 -0.7,-0.7 -1.9,-1.8 -3,-1.7 -2,0.1 -3.8,3.6 -5,3.7 -0.7,0 -1.5,-1.3 -2.3,-2.2 l -0.2,-0.2 c -0.9,-0.8 -2.9,-2.7 -4,-2.6 -0.7,0 -1.1,0.4 -1.7,0.7 -3.7,2.3 -3.6,3.9 -4.3,6.9 -0.1,0.5 -0.2,1.6 -0.3,2.5 -0.1,0.8 0,2.1 -1.1,2.1 -1,0 -1.8,-0.1 -2.8,-0.2 -0.7,-0.1 -1,-0.4 -1.1,-1.1 L 398,258 Z"
         id="path55"
         inkscape:connector-curvature="0" /><path
         d="m 431.7,248.1 c 1.5,-3.1 5.6,-3.8 8.8,-4 0.5,0 1,0 1.4,0 0.6,-0.1 1.1,-0.5 1,-1.1 0,-0.7 -0.4,-1.4 -0.8,-1.9 -1,-1.4 -2.2,-2 -3.8,-2 -0.9,0 -1.8,0.4 -2.7,0.4 -0.8,0 -1.7,-0.7 -1.8,-1.5 -0.1,-1.4 3.1,-1.8 4,-1.9 3.6,-0.2 7.4,1.2 8.6,5.4 0.2,0.7 0.7,2.6 1.7,10.9 0.1,1.2 -0.9,1.4 -1.9,1.5 -0.9,0 -1.2,-0.9 -2,-0.9 l -0.2,0 c -0.1,0 -0.3,0 -0.4,0.1 -1.5,1.1 -4.7,2.4 -7.5,2.5 -2.8,0.1 -5.2,-0.8 -5.4,-4.1 0,-1.1 0.4,-2.2 1,-3.4 z m 5.9,4.6 c 2.1,-0.1 6.6,-1.8 6.5,-3.6 -0.1,-1.6 -1.6,-2 -3,-2 -2.4,0.1 -6.4,0.5 -6.2,3.8 0.1,1.5 1,1.9 2.7,1.8 z"
         id="path57"
         inkscape:connector-curvature="0" /><path
         d="m 447.5,234.6 c 0,-0.9 0.5,-2 1.5,-2.1 l 0.1,0 c 1.4,0.1 2.5,1.4 2.6,2.7 l 0,0.2 c 0,1 -0.9,1.7 -1.9,1.8 l -0.2,0 c -1.3,-0.1 -2.1,-1.2 -2.1,-2.4 l 0,-0.2 z m 4.4,5.1 0.2,0 c 0.5,0 0.9,0.5 1,1 l 3.2,15.7 0,0.2 c -0.1,1.3 -2,1.1 -3.3,1.4 -0.8,0 -1.2,-0.7 -1.4,-1.4 L 449,243.2 c -0.1,-0.2 -0.2,-1.6 -0.2,-1.6 0.1,-1.2 2.1,-1.8 3.1,-1.9 z"
         id="path59"
         inkscape:connector-curvature="0" /><path
         d="m 456.3,253.2 c 0,-0.6 0.3,-1.5 1,-1.7 0.1,0 0.2,0 0.3,-0.1 0.1,0 0.2,0 0.3,0 1.5,0.4 2.9,1 4.4,0.9 0.3,0 0.6,-0.1 0.9,-0.1 1.2,-0.3 2.2,-1.2 2.1,-2.4 0,-0.1 0,-0.2 -0.1,-0.4 -0.3,-0.9 -1.3,-1.4 -5.9,-1.6 -1.7,0 -2.9,-1 -3.3,-2.4 0,-0.2 -0.1,-0.4 -0.1,-0.6 l 0,-0.2 c 0,-0.5 0,-1 0.2,-1.6 0.8,-2.7 4.2,-4.1 6.7,-4.2 2,-0.1 4.3,0.5 5.9,1.3 0.2,0.2 0.4,0.4 0.4,0.6 0,0 0,0.1 0,0.1 l 0,0.1 c 0,0.8 -1.2,1.7 -1.3,1.8 l -0.2,0 c -0.1,0 -0.2,0 -0.4,0 l -0.3,-0.1 c -1,-0.3 -2,-0.6 -3.1,-0.5 -0.3,0 -0.6,0.1 -0.9,0.1 -1,0.2 -2.6,1 -2.6,2.2 l 0.1,0.2 c 0.2,0.8 1.1,0.9 1.8,0.9 3,0.1 6.6,0.2 7.4,3.1 0.1,0.2 0.1,0.4 0.1,0.6 l 0,0.2 c 0,2.9 -3.4,5.3 -6.5,5.4 -2.4,0.1 -6.4,-0.1 -6.9,-1.4 0.1,0 0,0 0,-0.2 z"
         id="path61"
         inkscape:connector-curvature="0" /><path
         d="m 481,238.2 c 2,-0.1 1.3,1.5 2.6,1.9 1.8,-0.1 3.6,-0.6 5.4,-0.6 4.5,-0.2 8.2,1.1 8.4,6.1 0.2,4.6 -4.4,5.7 -7.9,6.5 -1.2,0.3 -2.9,0 -2.8,1.7 0,0.1 0.1,0.4 0.1,0.4 l 1.4,4.6 c 0,0 0,0.2 0,0.2 0.1,1.1 -1.8,1.6 -2.6,1.7 -0.5,0 -0.9,-0.3 -1,-0.8 l -5.3,-20.3 0,-0.2 c 0,-1 0.9,-1.2 1.7,-1.2 z m 6.1,12 0.3,0 c 0.2,0 0.4,-0.1 0.7,-0.1 2.7,-0.9 5.9,-1.5 5.8,-3.8 -0.1,-2.3 -2.2,-3.1 -4.3,-3 -2.1,0.1 -4.2,1.1 -4.7,2.5 0.4,2 0.6,4.5 2.2,4.4 z"
         id="path63"
         inkscape:connector-curvature="0" /><path
         d="m 498.7,244.7 c 1.5,-3.1 5.6,-3.8 8.8,-4 0.5,0 1,0 1.4,0 0.6,-0.1 1.1,-0.5 1,-1.1 0,-0.7 -0.4,-1.4 -0.8,-1.9 -1,-1.4 -2.2,-2 -3.8,-2 -0.9,0 -1.8,0.4 -2.7,0.4 -0.8,0 -1.7,-0.7 -1.8,-1.5 -0.1,-1.4 3.1,-1.8 4,-1.9 3.6,-0.2 7.4,1.2 8.6,5.4 0.2,0.7 0.7,2.6 1.7,10.9 0.1,1.2 -0.9,1.4 -1.9,1.5 -0.9,0 -1.2,-0.9 -2,-0.9 l -0.2,0 c -0.1,0 -0.3,0 -0.4,0.1 -1.5,1.1 -4.7,2.4 -7.5,2.5 -2.8,0.1 -5.2,-0.8 -5.4,-4.1 0,-1.1 0.5,-2.2 1,-3.4 z m 5.9,4.6 c 2.1,-0.1 6.6,-1.8 6.5,-3.6 -0.1,-1.6 -1.6,-2 -3,-2 -2.4,0.1 -6.4,0.5 -6.2,3.8 0.1,1.4 1.1,1.9 2.7,1.8 z"
         id="path65"
         inkscape:connector-curvature="0" /><path
         d="m 515.5,250.2 c 0,-0.6 0.3,-1.5 1,-1.7 0.1,0 0.2,0 0.3,-0.1 0.1,0 0.2,0 0.3,0 1.5,0.4 2.9,1 4.4,0.9 0.3,0 0.6,-0.1 0.9,-0.1 1.2,-0.3 2.2,-1.2 2.1,-2.4 0,-0.1 0,-0.2 -0.1,-0.4 -0.3,-0.9 -1.3,-1.4 -5.9,-1.6 -1.7,0 -2.9,-1 -3.3,-2.4 0,-0.2 -0.1,-0.4 -0.1,-0.6 l 0,-0.2 c 0,-0.5 0,-1 0.2,-1.6 0.8,-2.7 4.2,-4.1 6.7,-4.2 2,-0.1 4.3,0.5 5.9,1.3 0.2,0.2 0.4,0.4 0.4,0.6 0,0 0,0.1 0,0.1 l 0,0.1 c 0,0.8 -1.2,1.7 -1.3,1.8 l -0.2,0 c -0.1,0 -0.2,0 -0.4,0 l -0.3,-0.1 c -1,-0.3 -2,-0.6 -3.1,-0.5 -0.3,0 -0.6,0.1 -0.9,0.1 -1,0.2 -2.6,1 -2.6,2.2 l 0.1,0.2 c 0.2,0.8 1.1,0.9 1.8,0.9 3,0.1 6.6,0.2 7.4,3.1 0.1,0.2 0.1,0.4 0.1,0.6 l 0,0.2 c 0,2.9 -3.4,5.3 -6.5,5.4 -2.4,0.1 -6.4,-0.1 -6.9,-1.4 0.1,0 0,0 0,-0.2 z"
         id="path67"
         inkscape:connector-curvature="0" /><path
         d="m 551.7,253.8 -0.1,-3.4 -0.3,-1.1 c 0,-0.1 -0.4,-0.6 -0.7,-0.5 -3.7,0.2 -4.7,0 -4.9,0 -3.6,-0.8 -6.7,-3 -6.9,-6.6 -0.2,-4 2.8,-7.3 7,-7.5 1.8,-0.1 3.4,0.1 5.2,0 0.8,0 1.3,-0.5 2.1,-0.5 0.6,0 1.5,0 1.7,0.9 l 0,0.3 c 0.1,1.7 -0.1,3.7 -0.2,5.3 0.2,14.2 -1,14.3 -1.8,14.4 -0.6,0 -1,-0.3 -1.1,-0.8 l 0,-0.5 z m -2.7,-8.5 c 1.2,-0.1 2,-0.4 1.7,-5 0,-0.8 -0.1,-1.1 -0.1,-1.2 -0.3,-1.3 -1.4,-1.7 -2.6,-1.7 -2.3,0.1 -5.2,2 -5.1,3.7 0,0.3 0.1,0.7 0.2,1.1 0.6,2.6 3.7,3.2 5.9,3.1 z"
         id="path69"
         inkscape:connector-curvature="0" /><path
         d="m 555.3,240 c -0.1,-1.7 0.1,-3.7 2.3,-3.8 0.9,0 1.7,0.2 1.7,1 0.1,1 0,2.1 0,3.1 0.2,3.3 1.1,6.8 5.8,6.5 2.6,-0.1 4.6,-1.5 4.5,-3.8 -0.1,-1 -0.2,-2 -0.2,-3.1 -0.1,-1.3 2.2,-1.8 3.3,-1.8 0.8,0 1.3,0.4 1.6,1 l 2.6,6.2 c 0,0.7 -0.3,2.2 -1.7,2.3 -1.1,0.1 -1,-1.6 -2.2,-1.5 -0.8,0 -1.1,0.7 -1.5,1.1 -1.9,1.9 -3.9,2.8 -6.3,3 -1,0.1 -2.2,-0.1 -3.5,-0.3 0,0 -0.1,0 -0.1,0 0,0 -0.1,0 -0.1,0 -4.8,-0.9 -5.9,-4.8 -6.1,-8.4 0,-0.4 -0.1,-0.9 -0.1,-1.5 z"
         id="path71"
         inkscape:connector-curvature="0" /><path
         d="m 586.6,230.7 c 2.5,-0.1 4.9,1.3 5.6,3.8 0.2,0.9 0.9,3.3 0.9,4.5 0,0.3 -0.4,0.7 -0.7,0.7 -0.8,0.3 -6.4,1.7 -9.8,2.5 -0.7,0.2 -1.5,0.5 -1.4,1.4 0.2,3.1 3.9,3.8 6.2,3.7 1.2,-0.1 2.3,-0.3 3.5,-0.8 0.9,-0.4 1.7,-1.1 2.8,-1.2 0.9,0 2,1.2 2,2.1 0.1,1.6 -4.9,2.8 -6.3,2.9 -5.3,0.3 -12.1,-1.5 -12.4,-7.8 -0.2,-5 4.2,-11.5 9.6,-11.8 z m -3.8,9 0.1,0 c 0,0 3.1,-0.7 4.6,-1.1 0.9,-0.2 1.3,-0.9 1.3,-1.8 -0.1,-1.4 -0.7,-3.3 -2.4,-3.2 -1.9,0.1 -4.9,3.6 -4.8,5.3 0,0.6 0.6,0.8 1.2,0.8 z"
         id="path73"
         inkscape:connector-curvature="0" /><path
         d="m 604.6,224.4 c 0,-0.8 1.2,-0.9 2.3,-1 1.1,-0.1 2,0 2,1.2 0.3,6.1 0.4,12.1 0.8,19 0,0.6 -0.4,1 -1,1 -1.3,0.1 -2,-0.6 -2.1,-1.6 l -2,-18.6 z m 4,22.1 c 1.1,-0.1 2.1,0.6 2.1,1.5 0,0.8 -0.7,1.6 -1.7,1.6 -1,0.1 -2.2,-0.5 -2.3,-1.4 0,-0.9 0.8,-1.7 1.9,-1.7 z"
         id="path75"
         inkscape:connector-curvature="0" /></g><polygon
       class="st4"
       points="510.5,120.7 503.3,91.1 541.8,69.9 548.6,115.9 "
       id="polygon81"
       style="fill:#ecdfab" /></g><metadata
     id="metadata18927"><rdf:RDF><cc:Work
         rdf:about=""><dc:title></dc:title></cc:Work></rdf:RDF></metadata></svg>